<?xml version="1.0" encoding="UTF-8"?>
<svg version="1.1" xmlns="http://www.w3.org/2000/svg" width="800" height="600">
<path d="M0 0 C264 0 528 0 800 0 C800 198 800 396 800 600 C536 600 272 600 0 600 C0 402 0 204 0 0 Z " fill="#FEDCB4" transform="translate(0,0)"/>
<path d="M0 0 C0.95351201 -0.00382555 1.90702403 -0.00765109 2.88943034 -0.01159257 C6.0571885 -0.02184057 9.2247626 -0.01794605 12.39253235 -0.01396179 C14.67506069 -0.01831288 16.95758758 -0.02349736 19.2401123 -0.02944946 C25.42216485 -0.04280998 31.60415615 -0.04342125 37.78622031 -0.04088616 C42.95728126 -0.03981415 48.12832992 -0.04470587 53.29938823 -0.04949158 C66.20374151 -0.06121038 79.10805585 -0.0603676 92.0124108 -0.05393478 C103.18876719 -0.04877084 114.36503629 -0.06001015 125.54137542 -0.07903299 C137.04643201 -0.09846351 148.55143707 -0.10636749 160.05651122 -0.10290974 C166.50393937 -0.10110204 172.95128761 -0.10368146 179.39870262 -0.11762428 C185.46693637 -0.13025648 191.53499635 -0.12820764 197.60322762 -0.11521339 C199.82065262 -0.11285954 202.03809006 -0.11553919 204.25550079 -0.12383652 C231.25966594 -0.21753543 254.29256745 5.10374793 274.30000305 24.54975891 C275.19590149 25.44436829 276.09179993 26.33897766 277.0148468 27.26069641 C277.75605774 27.99030579 278.49726868 28.71991516 279.26094055 29.47163391 C297.68971025 48.7984918 300.32191553 73.23191644 300.289505 98.66596985 C300.29385786 100.92746651 300.29904291 103.18896169 300.30499268 105.45045471 C300.31833331 111.56634258 300.31896677 117.68216847 300.31642938 123.79806805 C300.31535615 128.91694323 300.3202521 134.03580606 300.3250348 139.15467858 C300.3367456 151.92892309 300.33591472 164.7031233 300.32947799 177.47736838 C300.32431302 188.53652495 300.3355575 199.59559331 300.35457621 210.65473244 C300.37401342 222.04572731 300.38190973 233.43666432 300.37845296 244.82767892 C300.37664639 251.20859881 300.3792134 257.58943794 300.3931675 263.97034454 C300.40580929 269.97540875 300.40374193 275.98029745 300.39075661 281.98535919 C300.38840493 284.1781775 300.3910744 286.37100841 300.39937973 288.56381226 C300.49750029 316.50392321 294.84549563 339.43523944 274.8273468 360.01069641 C258.63714146 375.99617338 237.29220489 384.42363394 214.59336853 384.40113831 C213.65214689 384.40410943 212.71092524 384.40708055 211.74118173 384.41014171 C208.59102067 384.41880483 205.44089773 384.42033496 202.29072571 384.42182922 C200.03011494 384.42645924 197.76950496 384.43148415 195.50889587 384.43687439 C189.36787714 384.44998636 183.22686934 384.45644151 177.08583879 384.46088505 C173.24468241 384.46381891 169.403529 384.46792441 165.56237411 384.47238922 C154.90955761 384.48449753 144.25674474 384.49487867 133.60392189 384.49826431 C132.9226718 384.49848388 132.24142171 384.49870344 131.53952768 384.49892966 C130.85671569 384.49914794 130.17390371 384.49936622 129.47040045 384.49959111 C128.08694116 384.50003457 126.70348187 384.50048113 125.32002258 384.50093079 C124.63378993 384.50115222 123.94755728 384.50137365 123.2405297 384.50160179 C112.14219729 384.50554263 101.04393082 384.52297525 89.94562383 384.54629031 C78.52770469 384.57008128 67.10983334 384.58221248 55.69188631 384.58363223 C49.29074892 384.58467718 42.88970449 384.59051828 36.48859024 384.60845184 C30.45899251 384.62501546 24.42955678 384.62704795 18.39994431 384.61831284 C16.19745192 384.61754677 13.99495054 384.62182774 11.79248047 384.63177109 C-3.21650754 384.69550861 -18.51512455 384.62499718 -32.3601532 378.01069641 C-33.02095886 377.70696106 -33.68176453 377.40322571 -34.3625946 377.09028625 C-53.35413435 368.08891848 -68.92064939 351.67663863 -77.6726532 332.69819641 C-77.95826111 332.10450256 -78.24386902 331.51080872 -78.53813171 330.89912415 C-84.87977379 316.50554647 -84.42426379 300.59872453 -84.38920593 285.21772766 C-84.39491978 282.93593514 -84.40188793 280.65414547 -84.41000366 278.37236023 C-84.42783594 272.21949531 -84.42678572 266.06677377 -84.42106128 259.91389084 C-84.41795565 254.76001506 -84.42407694 249.60616627 -84.43010002 244.45229435 C-84.44490911 231.59366734 -84.44135936 218.73512947 -84.42923672 205.87650406 C-84.41930364 194.74644127 -84.43225476 183.61654471 -84.45617091 172.48650753 C-84.48063429 161.01401499 -84.48975392 149.54161853 -84.48351818 138.06909847 C-84.48015994 131.64573975 -84.48248845 125.22251838 -84.49976921 118.79917908 C-84.51531545 112.7578977 -84.51119783 106.71693225 -84.49246407 100.67566299 C-84.48879971 98.46994204 -84.49182308 96.26419726 -84.50234985 94.05849838 C-84.60146155 71.55885606 -80.62098554 50.25881457 -65.9851532 32.26069641 C-65.3251532 32.26069641 -64.6651532 32.26069641 -63.9851532 32.26069641 C-63.7376532 31.68964172 -63.4901532 31.11858704 -63.2351532 30.53022766 C-55.71472829 16.87595619 -36.80313464 7.11896229 -22.2623108 2.87198275 C-14.80407107 0.86987272 -7.71321795 -0.03346346 0 0 Z " fill="#FE9635" transform="translate(291.9851531982422,107.73930358886719)"/>
<path d="M0 0 C0.89756582 -0.00297112 1.79513165 -0.00594224 2.71989644 -0.0090034 C5.7337754 -0.01768952 8.74761463 -0.01919857 11.76150513 -0.02069092 C13.91982101 -0.02531909 16.07813608 -0.03034375 18.2364502 -0.03573608 C24.10419735 -0.04886068 29.97193306 -0.05530496 35.83969259 -0.05974674 C39.50420505 -0.06267688 43.16871437 -0.06678154 46.83322525 -0.07125092 C58.29469344 -0.08492492 69.75615448 -0.09459251 81.21763027 -0.09845281 C94.45599386 -0.10293591 107.69425432 -0.12049599 120.93258655 -0.1494534 C131.16112858 -0.17105215 141.38964155 -0.18115609 151.61820614 -0.18249393 C157.72953893 -0.18354309 163.84077477 -0.18947477 169.95208359 -0.20731354 C175.69927934 -0.2237633 181.44630491 -0.22596473 187.19351578 -0.21717453 C189.30345362 -0.21640254 191.4134005 -0.22076805 193.52331543 -0.23063278 C196.40262895 -0.24330594 199.2813355 -0.2375006 202.16064453 -0.22705078 C203.41434918 -0.23913539 203.41434918 -0.23913539 204.69338119 -0.25146413 C210.7928553 -0.1996554 214.92585264 1.0991416 219.58230591 5.26544189 C221.91569873 9.39375228 222.02818361 12.59115022 221.20730591 17.14044189 C214.45717072 39.41827323 202.50326352 57.71898224 186.20730591 74.14044189 C185.36168091 74.99895752 184.51605591 75.85747314 183.64480591 76.74200439 C169.44815796 90.31515092 150.2201518 99.77617546 131.20730591 104.14044189 C129.9221106 104.43950439 128.63691528 104.73856689 127.31277466 105.04669189 C107.60168464 109.1764798 86.50831208 108.9187057 67.20730591 103.14044189 C66.15285278 102.85169189 65.09839966 102.56294189 64.01199341 102.26544189 C44.66263714 96.48643416 27.52631408 85.11596561 13.20730591 71.14044189 C12.56406372 70.55907471 11.92082153 69.97770752 11.25808716 69.37872314 C-3.5684329 55.65814398 -17.63533398 32.17697369 -19.35519409 11.89044189 C-18.62835028 7.0448165 -16.62514315 4.17299906 -12.79269409 1.14044189 C-8.58147787 -0.1623138 -4.36711735 -0.00450338 0 0 Z " fill="#FEFEFC" transform="translate(298.7926940917969,316.85955810546875)"/>
<path d="M0 0 C2.46884156 2.1905095 4.8063941 4.43786847 7.10546875 6.8046875 C7.8015625 7.43503906 8.49765625 8.06539062 9.21484375 8.71484375 C11.47391475 11.21195735 12.53566652 13.56221257 13.79296875 16.6796875 C14.41751953 18.19175781 14.41751953 18.19175781 15.0546875 19.734375 C19.17748066 31.78090075 17.60485687 43.48939971 12.10546875 54.8046875 C5.67443376 64.7123018 5.67443376 64.7123018 0.10546875 66.8046875 C-3.65937675 67.454979 -7.32602074 67.66687087 -10.7421875 65.7890625 C-13.76373079 63.32431465 -16.62078616 60.70312747 -17.1953125 56.71875 C-17.22004368 51.88792703 -16.96989755 48.77703564 -13.89453125 44.8046875 C-19.7722467 46.6519695 -23.56720455 50.73447539 -26.89453125 55.8046875 C-28.316717 58.81637496 -29.11850842 61.75794058 -29.83203125 64.9921875 C-30.89453125 68.8046875 -30.89453125 68.8046875 -33.89453125 70.8046875 C-39.31363767 71.7078719 -43.69435755 71.02225001 -48.26953125 68.00390625 C-54.44527521 63.44632597 -59.92641907 58.49821692 -61.89453125 50.8046875 C-61.94395694 47.7018526 -61.85891924 44.76436099 -60.89453125 41.8046875 C-58.14057179 39.10580723 -55.90881689 38.44174391 -52.14453125 37.9921875 C-45.67276014 36.81983427 -41.20564135 33.93115275 -37.2890625 28.6328125 C-36.07945019 26.72182835 -34.95008174 24.80414372 -33.89453125 22.8046875 C-34.88453125 23.4646875 -35.87453125 24.1246875 -36.89453125 24.8046875 C-40.8484551 27.00838349 -44.44206061 28.00828542 -48.89453125 26.8046875 C-52.40186481 25.03603211 -54.72855611 23.09232834 -56.89453125 19.8046875 C-58.06137389 15.53987765 -58.01936015 12.07676496 -56.89453125 7.8046875 C-52.14652907 0.08601015 -43.16007535 -4.21698895 -34.64453125 -6.5078125 C-22.24592236 -8.73432325 -10.28348225 -7.79934821 0 0 Z " fill="#FEFDFB" transform="translate(497.89453125,229.1953125)"/>
<path d="M0 0 C5.78286717 2.61865683 7.76548142 6.35689376 10 12 C10.63228203 13.76824634 11.25689508 15.53924818 11.875 17.3125 C15.4988843 27.48184974 20.88935545 35.91673494 28 44 C28.66644531 44.76183594 29.33289063 45.52367187 30.01953125 46.30859375 C38.07297853 54.92981653 48.33335455 61.0933431 59 66 C59 67.65 59 69.3 59 71 C46.81887905 76.3878035 32.65226474 77.23497345 19.875 72.9375 C13.49816248 70.46949153 8.20094501 67.42559475 3 63 C2.15824219 62.30390625 1.31648438 61.6078125 0.44921875 60.890625 C-10.45811049 51.02602981 -16.43785549 37.63831967 -17.20703125 23.08203125 C-17.44971661 14.80797716 -17.5551538 8.07797053 -11.875 1.5625 C-7.83165504 -0.63497009 -4.50397923 -0.76392581 0 0 Z " fill="#FEFDFA" transform="translate(312,225)"/>
<path d="M0 0 C8.07029433 2.71920272 13.17420743 8.21312909 17.02734375 15.6875 C19.64342811 23.11531096 19.87771183 32.06222303 17.23828125 39.53125 C12.45580081 47.9453466 6.24891793 52.74866734 -2.8984375 55.71875 C-10.9328705 57.7415634 -17.39567283 56.3109046 -24.66015625 52.4140625 C-31.32757463 47.88428971 -35.48404955 42.21642798 -37.66015625 34.4140625 C-38.4738101 24.61851545 -38.26321406 17.54569029 -32.59765625 9.4765625 C-28.37431837 6.51124016 -24.66465794 6.97677594 -19.66015625 7.4140625 C-19.41265625 6.6509375 -19.16515625 5.8878125 -18.91015625 5.1015625 C-15.30009322 -2.66007303 -7.27504851 -1.60243359 0 0 Z " fill="#FEFDFA" transform="translate(363.66015625,187.5859375)"/>
<path d="M0 0 C9.20573253 5.15521022 17.08440558 11.19861792 20.3125 21.5625 C21.82618057 28.45815594 21.82283901 33.65396868 18.328125 39.9296875 C15.41501577 44.33718393 11.81027497 47.39079507 7.125 49.75 C-2.44378632 51.03277208 -10.3038156 49.86609867 -18.05859375 44.13671875 C-25.31111869 38.13508802 -29.85232549 31.08838059 -31.1640625 21.67578125 C-31.44383745 15.20280627 -29.67766441 9.9532565 -25.625 5 C-17.92584911 -1.29930527 -9.77222906 -3.93060769 0 0 Z " fill="#FEFDFB" transform="translate(404.875,250.25)"/>
<path d="M0 0 C0.68835938 0.33515625 1.37671875 0.6703125 2.0859375 1.015625 C4.65009503 2.33433459 6.67097148 3.57083236 8.4375 5.875 C9.23369783 8.88285846 9.50692443 10.89508787 9 14 C6.32431926 17.34460092 4.67523027 18.74617723 0.421875 19.390625 C-1.60614185 19.50992011 -3.6348907 19.61714289 -5.6640625 19.71484375 C-19.75828522 20.91961923 -33.34757322 27.00774543 -43.3125 36.9375 C-46.63805425 40.25099123 -49.14362541 42.74012763 -54.0625 42.875 C-56.58940497 42.63972021 -57.70772724 42.2348982 -59.69140625 40.640625 C-61.90415858 37.86642805 -61.88704546 35.50159078 -62 32 C-60.68679968 25.95493737 -57.96590211 20.39150423 -55 15 C-54.484375 14.01 -53.96875 13.02 -53.4375 12 C-40.95717256 -3.360403 -17.69549517 -9.67618837 0 0 Z " fill="#FDFCF8" transform="translate(457,190)"/>
<path d="M0 0 C0.53625 0.28875 1.0725 0.5775 1.625 0.875 C4.08024809 2.11346577 4.08024809 2.11346577 7.1875 2.9375 C8.5796875 3.4634375 8.5796875 3.4634375 10 4 C10.33 4.99 10.66 5.98 11 7 C12.87387216 7.80212628 12.87387216 7.80212628 15.0625 8.1875 C15.79597656 8.34605469 16.52945312 8.50460937 17.28515625 8.66796875 C17.85105469 8.77753906 18.41695313 8.88710938 19 9 C19 9.66 19 10.32 19 11 C20.12019531 11.27714844 21.24039062 11.55429687 22.39453125 11.83984375 C23.86720302 12.20566667 25.33985842 12.57155553 26.8125 12.9375 C27.55048828 13.11990234 28.28847656 13.30230469 29.04882812 13.49023438 C32.07060984 14.2422615 35.04456718 15.01485573 38 16 C41.61333053 16.30934578 45.22725331 16.50952135 48.84765625 16.71875 C52 17 52 17 54 18 C54 17.34 54 16.68 54 16 C81.52995912 15.97660768 109.05991674 15.95898975 136.5898838 15.94818783 C149.37340248 15.94303832 162.15691498 15.93602129 174.94042969 15.92456055 C186.08653371 15.91457258 197.23263325 15.90813679 208.37874162 15.90591151 C214.27684927 15.90461138 220.17494411 15.90156984 226.07304764 15.89426994 C231.6330315 15.88744477 237.19299735 15.88539618 242.752985 15.88689232 C244.78537786 15.8866189 246.81777138 15.88465254 248.8501606 15.88079453 C259.6191598 15.86136774 270.2677739 16.00620148 281 17 C281 17.33 281 17.66 281 18 C275.81599333 19.05613175 270.84198601 19.14565824 265.57852173 19.14044189 C264.63730008 19.14341302 263.69607844 19.14638414 262.72633493 19.1494453 C259.57617387 19.15810842 256.42605093 19.15963855 253.27587891 19.16113281 C251.01526814 19.16576283 248.75465815 19.17078774 246.49404907 19.17617798 C240.35303034 19.18928995 234.21202254 19.1957451 228.07099199 19.20018864 C224.22983561 19.2031225 220.3886822 19.207228 216.54752731 19.21169281 C205.89471081 19.22380112 195.24189793 19.23418226 184.58907509 19.2375679 C183.907825 19.23778747 183.22657491 19.23800703 182.52468088 19.23823325 C181.84186889 19.23845153 181.15905691 19.23866981 180.45555365 19.2388947 C179.07209436 19.23933815 177.68863507 19.23978472 176.30517578 19.24023438 C175.61894313 19.2404558 174.93271048 19.24067723 174.2256829 19.24090537 C163.12735048 19.24484622 152.02908401 19.26227884 140.93077703 19.2855939 C129.51285788 19.30938487 118.09498654 19.32151607 106.6770395 19.32293582 C100.27590212 19.32398077 93.87485769 19.32982187 87.47374344 19.34775543 C81.44414571 19.36431904 75.41470998 19.36635154 69.3850975 19.35761642 C67.18260512 19.35685036 64.98010374 19.36113133 62.77763367 19.37107468 C47.7658069 19.43482425 32.47378812 19.36098309 18.625 12.75 C17.97072021 12.45134033 17.31644043 12.15268066 16.64233398 11.8449707 C2.61470065 5.22940129 2.61470065 5.22940129 0 0 Z " fill="#F29436" transform="translate(241,473)"/>
<path d="M0 0 C0.95351201 -0.00382555 1.90702403 -0.00765109 2.88943034 -0.01159257 C6.0571885 -0.02184057 9.2247626 -0.01794605 12.39253235 -0.01396179 C14.67506069 -0.01831288 16.95758758 -0.02349736 19.2401123 -0.02944946 C25.42216485 -0.04280998 31.60415615 -0.04342125 37.78622031 -0.04088616 C42.95728126 -0.03981415 48.12832992 -0.04470587 53.29938823 -0.04949158 C66.20374151 -0.06121038 79.10805585 -0.0603676 92.0124108 -0.05393478 C103.18876719 -0.04877084 114.36503629 -0.06001015 125.54137542 -0.07903299 C137.04643201 -0.09846351 148.55143707 -0.10636749 160.05651122 -0.10290974 C166.50393937 -0.10110204 172.95128761 -0.10368146 179.39870262 -0.11762428 C185.46693637 -0.13025648 191.53499635 -0.12820764 197.60322762 -0.11521339 C199.82065262 -0.11285954 202.03809006 -0.11553919 204.25550079 -0.12383652 C218.84020858 -0.17444246 232.66807711 0.31029398 246.3898468 5.82319641 C247.44945618 6.23698547 248.50906555 6.65077454 249.6007843 7.07710266 C252.0148468 8.26069641 252.0148468 8.26069641 253.0148468 10.26069641 C252.49277649 10.0789386 251.97070618 9.89718079 251.43281555 9.70991516 C239.6360996 5.68126436 228.63848459 3.10561215 216.13334656 3.12698364 C215.1549244 3.12471809 214.17650224 3.12245253 213.16843092 3.12011832 C209.8989624 3.11380206 206.62953558 3.11460615 203.36006165 3.11543274 C201.01249132 3.11243987 198.66492148 3.10903705 196.31735229 3.10525513 C189.94779689 3.09642649 183.57825492 3.09407756 177.20869398 3.09343934 C172.56283242 3.0926092 167.91697385 3.08970954 163.27111334 3.08660286 C150.77972317 3.0783042 138.28834012 3.07456002 125.79694729 3.0752726 C125.08832678 3.07531255 124.37970628 3.07535251 123.64961243 3.07539368 C122.94012556 3.07543456 122.23063869 3.07547544 121.49965222 3.07551756 C109.98981068 3.07592441 98.4800018 3.06634319 86.97016971 3.05225531 C75.14660188 3.03789769 63.32304999 3.0309847 51.49947321 3.03184909 C44.86342504 3.03218114 38.22740701 3.02923569 31.59136581 3.01867104 C25.35497936 3.00901313 19.11866549 3.00889499 12.88227654 3.01618767 C10.59131324 3.01723621 8.30034548 3.01485475 6.00938988 3.00882721 C2.88696697 3.00114275 -0.23520302 3.00572853 -3.35762024 3.01345825 C-4.26821784 3.00831469 -5.17881543 3.00317113 -6.1170069 2.9978717 C-10.57921421 3.02235454 -13.89203338 3.29921378 -17.9851532 5.26069641 C-19.64611023 5.46372375 -19.64611023 5.46372375 -21.34062195 5.67085266 C-25.42819155 6.3323993 -28.67876529 7.78963147 -32.2976532 9.69819641 C-32.91704773 10.01079407 -33.53644226 10.32339172 -34.17460632 10.64546204 C-36.78506836 11.98612278 -38.89798749 13.1735307 -40.9851532 15.26069641 C-43.6101532 15.88569641 -43.6101532 15.88569641 -45.9851532 16.26069641 C-45.9851532 16.92069641 -45.9851532 17.58069641 -45.9851532 18.26069641 C-47.6351532 18.59069641 -49.2851532 18.92069641 -50.9851532 19.26069641 C-39.08815423 5.23923334 -17.70571577 -0.07681548 0 0 Z " fill="#E18C38" transform="translate(291.9851531982422,107.73930358886719)"/>
<path d="M0 0 C2.93423195 1.79646854 4.47205355 2.9441071 6 6 C6.0955931 7.66444461 6.12984645 9.33281963 6.125 11 C6.12886719 12.3303125 6.12886719 12.3303125 6.1328125 13.6875 C6 16 6 16 5 18 C4.34 18 3.68 18 3 18 C2.67 18.99 2.34 19.98 2 21 C-1.53399206 22.76699603 -5.15152838 22.63932265 -9 22 C-12.07957102 20.53300435 -14.12700467 18.85908945 -16 16 C-17.05514162 11.60999473 -16.51357604 8.1494321 -14.6875 4.0625 C-10.60442847 -0.92792076 -5.99999503 -0.80382709 0 0 Z " fill="#FEFDF8" transform="translate(293,278)"/>
<path d="M0 0 C12.06462983 10.23665562 17.35038859 27.77667106 19 43 C19.36867204 50.45277296 19.25325051 57.92446357 19.22705078 65.38378906 C19.22648593 67.64168798 19.22680467 69.89958726 19.22793579 72.15748596 C19.22850741 78.25785302 19.21678407 84.35814073 19.20278788 90.45848942 C19.19024861 96.84461625 19.1891075 103.23074508 19.18673706 109.61688232 C19.18123581 120.32614771 19.16876051 131.03537858 19.15087891 141.74462891 C19.13248925 152.76969255 19.11834789 163.79474831 19.10986328 174.81982422 C19.10933783 175.50069352 19.10881239 176.18156283 19.10827102 176.88306454 C19.10566073 180.29916919 19.10313336 183.7152739 19.10064721 187.13137865 C19.07995172 215.420939 19.04460889 243.71046794 19 272 C18.67 272 18.34 272 18 272 C17.99668985 270.87669564 17.99337971 269.75339128 17.98996925 268.5960474 C17.90882077 241.20943468 17.81645859 213.82287706 17.71247292 186.43634129 C17.66244249 173.19219163 17.61599876 159.94804788 17.578125 146.70385742 C17.54508854 135.15446773 17.50519366 123.60512511 17.45720994 112.0557875 C17.43206041 105.94576391 17.41024557 99.83577107 17.39665604 93.72570992 C17.38373023 87.9629348 17.36156474 82.20026579 17.33261681 76.43754959 C17.32362259 74.33386451 17.31787013 72.23016239 17.31578636 70.12645912 C17.48855774 47.49419104 17.48855774 47.49419104 12.375 25.625 C10 19.21387283 10 19.21387283 10 16 C9.34 16 8.68 16 8 16 C7.54625 14.948125 7.0925 13.89625 6.625 12.8125 C6.34914063 12.17699219 6.07328125 11.54148438 5.7890625 10.88671875 C5.13484992 9.32243818 4.5570307 7.72646326 4 6.125 C3.505 5.073125 3.505 5.073125 3 4 C2.01 3.67 1.02 3.34 0 3 C0 2.01 0 1.02 0 0 Z " fill="#D0812C" transform="translate(573,141)"/>
<path d="M0 0 C0.53625 0.28875 1.0725 0.5775 1.625 0.875 C4.08024809 2.11346577 4.08024809 2.11346577 7.1875 2.9375 C8.5796875 3.4634375 8.5796875 3.4634375 10 4 C10.33 4.99 10.66 5.98 11 7 C12.87387216 7.80212628 12.87387216 7.80212628 15.0625 8.1875 C15.79597656 8.34605469 16.52945312 8.50460937 17.28515625 8.66796875 C17.85105469 8.77753906 18.41695313 8.88710938 19 9 C19 9.66 19 10.32 19 11 C20.12019531 11.27714844 21.24039062 11.55429687 22.39453125 11.83984375 C23.86720302 12.20566667 25.33985842 12.57155553 26.8125 12.9375 C27.55048828 13.11990234 28.28847656 13.30230469 29.04882812 13.49023438 C32.07060984 14.2422615 35.04456718 15.01485573 38 16 C49.82605864 17.41022584 61.8046868 17.17156891 73.69287109 17.20532227 C75.85254598 17.21491929 78.01221905 17.22493039 80.17189026 17.23532104 C85.995244 17.26217872 91.81860569 17.28329096 97.64198637 17.30332303 C103.74250935 17.3253017 109.84300837 17.35263186 115.94351196 17.37937927 C127.47801312 17.42914644 139.01252768 17.47414405 150.54705489 17.51740164 C163.68620226 17.56691119 176.82532558 17.62177813 189.96444964 17.67708123 C216.97627729 17.79065578 243.98812804 17.89754753 271 18 C271 18.33 271 18.66 271 19 C242.22651457 19.06857661 213.45303885 19.12160044 184.67948765 19.15319599 C181.27525725 19.15694769 177.87102702 19.16083069 174.46679688 19.16479492 C173.78913367 19.16558185 173.11147047 19.16636878 172.41327202 19.16717956 C161.46975993 19.18020008 150.52629558 19.20383524 139.58281171 19.23145839 C128.33685548 19.25960629 117.09092291 19.27597175 105.8449297 19.28226548 C99.53535603 19.28616427 93.22589028 19.29527841 86.91635132 19.31719017 C80.96727836 19.33768106 75.01835692 19.34380847 69.06925201 19.33932304 C66.89578679 19.34014263 64.72231604 19.34603262 62.54888153 19.35761642 C47.61020104 19.43327301 32.40449691 19.32790561 18.625 12.75 C17.97072021 12.45134033 17.31644043 12.15268066 16.64233398 11.8449707 C2.61470065 5.22940129 2.61470065 5.22940129 0 0 Z " fill="#CF812C" transform="translate(241,473)"/>
<path d="M0 0 C0.91616559 -0.00226556 1.83233118 -0.00453111 2.77625936 -0.00686532 C5.84698174 -0.01319687 8.91765988 -0.01237651 11.98838806 -0.0115509 C14.18950457 -0.01454284 16.39062055 -0.01794545 18.59173584 -0.02172852 C24.57085929 -0.03056728 30.54996844 -0.03290653 36.5290978 -0.0335443 C41.51702699 -0.03449337 46.50495285 -0.03817149 51.49288076 -0.0417164 C62.58410436 -0.04939466 73.6753223 -0.05238505 84.76654822 -0.05171105 C85.43175732 -0.05167109 86.09696642 -0.05163113 86.78233337 -0.05158997 C87.44835433 -0.05154909 88.11437529 -0.0515082 88.80057871 -0.05146609 C99.60313924 -0.05105931 110.40566496 -0.06063766 121.20821542 -0.07472833 C132.30059626 -0.08908297 143.39296273 -0.0958158 154.48535341 -0.09513456 C160.71283713 -0.09487916 166.94028144 -0.09775346 173.16775703 -0.10831261 C179.02081309 -0.11796615 184.87379179 -0.11809168 190.72685051 -0.11079597 C192.87793973 -0.10974684 195.0290337 -0.11213239 197.18011475 -0.11815643 C200.11032156 -0.12583267 203.04025831 -0.12126066 205.97045898 -0.11352539 C206.82696944 -0.11866895 207.68347989 -0.12381252 208.56594521 -0.12911195 C214.47260196 -0.09451586 214.47260196 -0.09451586 216.92026991 1.14926833 C219.14821196 2.4279538 219.14821196 2.4279538 222.92173767 2.13371277 C222.92173767 4.44371277 222.92173767 6.75371277 222.92173767 9.13371277 C222.45122986 8.71218933 221.98072205 8.29066589 221.49595642 7.85636902 C220.56203064 7.03459167 220.56203064 7.03459167 219.60923767 6.19621277 C218.99435486 5.65093933 218.37947205 5.10566589 217.74595642 4.54386902 C213.68773713 1.4067873 209.11669172 1.99105529 204.24256897 2 C203.345152 1.99773444 202.44773504 1.99546889 201.52312362 1.99313468 C198.50380105 1.98678401 195.48452323 1.98762473 192.4651947 1.9884491 C190.30540407 1.98545827 188.14561397 1.98205592 185.98582458 1.97827148 C180.109818 1.96941949 174.23382597 1.96709287 168.35781336 1.9664557 C163.45706524 1.96550749 158.55632053 1.96183021 153.65557373 1.9582836 C142.09569303 1.95013448 130.53582013 1.94769979 118.97593689 1.94841003 C107.04092463 1.94901095 95.10595755 1.93845732 83.17095673 1.92266637 C72.93310874 1.90960227 62.69527554 1.90422566 52.45741928 1.90486544 C46.33886178 1.90512076 40.22034441 1.90225084 34.1017952 1.89168739 C28.34807599 1.88202543 22.59443544 1.88191416 16.8407135 1.88920403 C14.72713481 1.89025224 12.61355128 1.88787302 10.49998093 1.88184357 C7.61818523 1.8741541 4.73666324 1.87874829 1.85487366 1.88647461 C1.0154756 1.88133105 0.17607754 1.87618748 -0.68875682 1.87088805 C-6.15041864 1.9033201 -10.02077019 2.4654759 -14.39076233 6.00871277 C-17.01190268 10.86267639 -16.38853942 15.72972018 -16.07826233 21.13371277 C-16.73826233 20.80371277 -17.39826233 20.47371277 -18.07826233 20.13371277 C-18.76605626 7.25668199 -18.76605626 7.25668199 -16.39076233 3.38371277 C-11.95330353 -0.93381472 -5.855122 -0.01061392 0 0 Z " fill="#E59A54" transform="translate(297.07826232910156,315.8662872314453)"/>
<path d="M0 0 C2.5625 1.5625 2.5625 1.5625 4 4 C4.44840805 8.18514179 4.46947845 11.49074115 2 15 C-1.75047482 17.50031654 -3.55856266 17.53603554 -8 17 C-10.93052231 15.00475077 -12.64521503 13.57163515 -13.4453125 10.02734375 C-13.63099028 6.71609006 -13.21285614 4.37018459 -11.5625 1.5 C-7.74710589 -0.73340143 -4.31090664 -0.76726228 0 0 Z " fill="#FDFBF6" transform="translate(397,177)"/>
<path d="M0 0 C0.66 0 1.32 0 2 0 C3.26237731 2.52475462 3.09856404 4.31200466 3.0625 7.125 C3.05347656 8.03507813 3.04445313 8.94515625 3.03515625 9.8828125 C3.02355469 10.58148438 3.01195312 11.28015625 3 12 C-2.82065405 16.29619704 -7.93798118 16.56087299 -15.0859375 16.82421875 C-17.8912248 16.67014236 -17.8912248 16.67014236 -19 18 C-20.53529607 18.32352982 -22.07874517 18.60872651 -23.625 18.875 C-26.95763384 19.49957086 -29.86750794 20.24782492 -32.9375 21.6875 C-36 23 -36 23 -39 22 C-29.42886754 17.23327458 -20.2860229 14.15387075 -9.5625 13.5625 C-5.88352934 13.31177068 -4.08206936 13.04261294 -0.75 11.3125 C1.51209995 8.3232965 1.46857988 6.67054238 1 3 C0.505 1.515 0.505 1.515 0 0 Z " fill="#EFA156" transform="translate(464,195)"/>
<path d="M0 0 C0.53625 0.28875 1.0725 0.5775 1.625 0.875 C4.08024809 2.11346577 4.08024809 2.11346577 7.1875 2.9375 C8.5796875 3.4634375 8.5796875 3.4634375 10 4 C10.33 4.99 10.66 5.98 11 7 C12.87387216 7.80212628 12.87387216 7.80212628 15.0625 8.1875 C15.79597656 8.34605469 16.52945312 8.50460937 17.28515625 8.66796875 C17.85105469 8.77753906 18.41695313 8.88710938 19 9 C19 9.66 19 10.32 19 11 C20.12019531 11.27714844 21.24039062 11.55429687 22.39453125 11.83984375 C23.86720302 12.20566667 25.33985842 12.57155553 26.8125 12.9375 C27.55048828 13.11990234 28.28847656 13.30230469 29.04882812 13.49023438 C32.07060984 14.2422615 35.04456718 15.01485573 38 16 C40.39254576 16.22560676 42.78928123 16.40848595 45.1875 16.5625 C47.09595703 16.68818359 47.09595703 16.68818359 49.04296875 16.81640625 C50.01878906 16.87699219 50.99460937 16.93757813 52 17 C52 17.33 52 17.66 52 18 C36.63324396 21.01846994 20.82541651 14.97702816 7.80859375 7.05859375 C1.31809601 2.63619202 1.31809601 2.63619202 0 0 Z " fill="#DD8E41" transform="translate(241,473)"/>
<path d="M0 0 C11.24975284 9.54524483 16.52365794 25.42270379 18.4375 39.625 C18.577323 40.63771973 18.577323 40.63771973 18.7199707 41.67089844 C19.13068816 45.38284549 19.11565155 47.85446524 17 51 C16.91363281 49.94683594 16.82726562 48.89367187 16.73828125 47.80859375 C15.88339529 38.66920196 14.21400458 30.58924935 11.0234375 21.9765625 C10 19 10 19 10 16 C9.34 16 8.68 16 8 16 C7.54625 14.948125 7.0925 13.89625 6.625 12.8125 C6.34914063 12.17699219 6.07328125 11.54148438 5.7890625 10.88671875 C5.13484992 9.32243818 4.5570307 7.72646326 4 6.125 C3.505 5.073125 3.505 5.073125 3 4 C2.01 3.67 1.02 3.34 0 3 C0 2.01 0 1.02 0 0 Z " fill="#DA8F43" transform="translate(573,141)"/>
<path d="M0 0 C0 0.33 0 0.66 0 1 C-0.78246094 1.13277344 -1.56492187 1.26554687 -2.37109375 1.40234375 C-3.38300781 1.57894531 -4.39492188 1.75554687 -5.4375 1.9375 C-6.44683594 2.11152344 -7.45617187 2.28554687 -8.49609375 2.46484375 C-10.9287438 2.74751097 -10.9287438 2.74751097 -12 4 C-13.53720703 4.17208984 -13.53720703 4.17208984 -15.10546875 4.34765625 C-19.29228234 5.04895802 -22.60315247 6.48122757 -26.3125 8.4375 C-26.93189453 8.75009766 -27.55128906 9.06269531 -28.18945312 9.38476562 C-30.79991516 10.72542637 -32.91283429 11.91283429 -35 14 C-37.625 14.625 -37.625 14.625 -40 15 C-40 15.66 -40 16.32 -40 17 C-41.65 17.33 -43.3 17.66 -45 18 C-34.37236703 5.47457542 -15.94199291 -0.27486195 0 0 Z " fill="#DB8F42" transform="translate(286,109)"/>
<path d="M0 0 C0.66 0 1.32 0 2 0 C6.7280546 8.19529463 6.16165325 20.97298087 4.3984375 30.12109375 C3.69241397 32.4638082 2.89003302 34.72204419 2 37 C1.67 38.155 1.34 39.31 1 40.5 C0 43 0 43 -3 45 C-3.99 44.67 -4.98 44.34 -6 44 C-5.2575 43.0925 -4.515 42.185 -3.75 41.25 C2.20076688 32.82398536 4.1072069 23.14303337 3 13 C2.17726756 8.61366079 1.16701757 4.30685057 0 0 Z " fill="#EDA153" transform="translate(511,245)"/>
<path d="M0 0 C0.33 0 0.66 0 1 0 C1.91917935 5.60886993 1.96387965 10.33981328 0.8125 15.9375 C0.67739014 16.62972656 0.54228027 17.32195312 0.40307617 18.03515625 C-0.72699566 23.46255016 -2.4596013 28.09440251 -5 33 C-6.12758089 29.61725734 -5.81750262 28.23221777 -5.0625 24.8125 C-4.86785156 23.91144531 -4.67320312 23.01039063 -4.47265625 22.08203125 C-4.31667969 21.39496094 -4.16070313 20.70789063 -4 20 C-3.34 20 -2.68 20 -2 20 C-2.020625 18.72125 -2.04125 17.4425 -2.0625 16.125 C-2.125 12.25 -2.125 12.25 -1 10 C-0.77377919 8.29636178 -0.59111527 6.58671299 -0.4375 4.875 C-0.35371094 3.96492188 -0.26992188 3.05484375 -0.18359375 2.1171875 C-0.12300781 1.41851562 -0.06242188 0.71984375 0 0 Z " fill="#E28C36" transform="translate(590,408)"/>
<path d="M0 0 C0.66 0 1.32 0 2 0 C0.73132098 5.33115121 -1.05889165 9.07712789 -4.25 13.625 C-4.99765625 14.71039063 -5.7453125 15.79578125 -6.515625 16.9140625 C-9.13376067 20.16614927 -11.71880355 22.44901201 -15 25 C-13.84826645 22.53199953 -12.95216435 20.95216435 -11 19 C-10.814375 17.7625 -10.814375 17.7625 -10.625 16.5 C-10.315625 15.2625 -10.315625 15.2625 -10 14 C-8.6846659 13.29848848 -7.34882408 12.63474075 -6 12 C-3.3543485 8.2960879 -1.72468363 4.18851738 0 0 Z " fill="#DC8D41" transform="translate(582,441)"/>
<path d="M0 0 C2.475 0.99 2.475 0.99 5 2 C5.20666253 7.06323209 4.80886571 11.23982707 3 16 C-1.31715059 17.4390502 -5.48826214 17.56858235 -10 17 C-12.625 15 -12.625 15 -14 13 C-13.67 12.34 -13.34 11.68 -13 11 C-12.67 11.99 -12.34 12.98 -12 14 C-8.47005387 15.17664871 -5.70544587 15.19850603 -2 15 C1.24849977 13.27773504 1.24849977 13.27773504 2 10 C2.343491 4.66704568 2.343491 4.66704568 0 0 Z " fill="#F39E51" transform="translate(398,178)"/>
<path d="M0 0 C2.67372285 0.08687186 5.32375655 0.04614213 8 0 C8 0.33 8 0.66 8 1 C-5.83283504 3.9121758 -19.94611498 3.18995686 -34 3 C-34 2.67 -34 2.34 -34 2 C-26.08 2 -18.16 2 -10 2 C-10 1.34 -10 0.68 -10 0 C-6.3742928 -1.25505249 -3.7308454 -0.64572324 0 0 Z " fill="#FBE9CC" transform="translate(418,421)"/>
<path d="M0 0 C2 1 2 1 2.8515625 3.30078125 C7.15304142 20.05047948 7.15304142 20.05047948 3.98046875 27.34375 C3.65691406 27.8903125 3.33335937 28.436875 3 29 C2.95101562 27.99582031 2.90203125 26.99164063 2.8515625 25.95703125 C2.38595753 17.1997868 1.52550338 8.64945607 0 0 Z " fill="#FEF0CF" transform="translate(510,245)"/>
<path d="M0 0 C0.33 1.32 0.66 2.64 1 4 C0.34 4 -0.32 4 -1 4 C-1 10.27 -1 16.54 -1 23 C-4.08145313 19.91854687 -3.9614024 17.57896406 -4.25 13.25 C-4.20884584 8.86296686 -3.20880611 3.20880611 0 0 Z " fill="#FEEFD1" transform="translate(378,257)"/>
<path d="M0 0 C0.66 0.33 1.32 0.66 2 1 C-10.25118483 12.72985782 -10.25118483 12.72985782 -18 16 C-18.99 15.67 -19.98 15.34 -21 15 C-19.6875 13.5 -19.6875 13.5 -18 12 C-17.01 12 -16.02 12 -15 12 C-15 11.34 -15 10.68 -15 10 C-13.02 9.67 -11.04 9.34 -9 9 C-8.938125 8.38125 -8.87625 7.7625 -8.8125 7.125 C-8 5 -8 5 -5.625 3.9375 C-4.75875 3.628125 -3.8925 3.31875 -3 3 C-1.22722741 1.47992158 -1.22722741 1.47992158 0 0 Z " fill="#DB8E40" transform="translate(564,467)"/>
<path d="M0 0 C0.66 0.33 1.32 0.66 2 1 C2 5.95 2 10.9 2 16 C1.34 16 0.68 16 0 16 C-0.226875 17.093125 -0.45375 18.18625 -0.6875 19.3125 C-2 23 -2 23 -4.5 25 C-5.325 25.33 -6.15 25.66 -7 26 C-7.66 25.67 -8.32 25.34 -9 25 C-8.2575 24.34 -7.515 23.68 -6.75 23 C-1.59584869 17.72837515 0.24129405 12.89135209 0.25 5.5 C0.1864412 3.66587464 0.10991591 1.83193178 0 0 Z " fill="#F29F57" transform="translate(425,272)"/>
<path d="M0 0 C-0.474375 0.639375 -0.94875 1.27875 -1.4375 1.9375 C-3.47031387 5.92181519 -3.7210529 9.58494074 -4 14 C-6 12 -6 12 -6.5 8.9375 C-6.665 7.968125 -6.83 6.99875 -7 6 C-7.66 5.67 -8.32 5.34 -9 5 C-8 2 -8 2 -5.625 0.25 C-3 -1 -3 -1 0 0 Z " fill="#F09D4F" transform="translate(485,274)"/>
<path d="M0 0 C0.66 0 1.32 0 2 0 C3.26237731 2.52475462 3.09856404 4.31200466 3.0625 7.125 C3.05347656 8.03507813 3.04445313 8.94515625 3.03515625 9.8828125 C3.02355469 10.58148438 3.01195312 11.28015625 3 12 C-2.71831968 16.28873976 -6.60475437 16.22027554 -13.62109375 15.359375 C-14.79865234 15.18148437 -14.79865234 15.18148437 -16 15 C-16 14.67 -16 14.34 -16 14 C-14.78763672 13.96132812 -14.78763672 13.96132812 -13.55078125 13.921875 C-6.90658786 13.59696327 -6.90658786 13.59696327 -0.75 11.3125 C1.51209995 8.3232965 1.46857988 6.67054238 1 3 C0.67 2.01 0.34 1.02 0 0 Z " fill="#F2A762" transform="translate(464,195)"/>
<path d="M0 0 C1.65 0.33 3.3 0.66 5 1 C2.81442306 2.78084047 1.04812162 3.98281371 -1.625 4.9375 C-4.52327692 6.23409757 -4.81948364 7.13303171 -6 10 C-6.97581759 11.35113205 -7.97029741 12.68946944 -9 14 C-8.125 8.125 -8.125 8.125 -7 7 C-7.66 6.34 -8.32 5.68 -9 5 C-6.09399739 3.74335022 -4.20395416 3 -1 3 C-0.67 2.01 -0.34 1.02 0 0 Z " fill="#F49D4C" transform="translate(384,248)"/>
<path d="M0 0 C1.46554321 0.01232666 1.46554321 0.01232666 2.96069336 0.02490234 C4.556875 0.03070313 4.556875 0.03070313 6.18530273 0.03662109 C7.29583008 0.06111328 8.40635742 0.08560547 9.55053711 0.11083984 C10.66493164 0.11212891 11.77932617 0.11341797 12.92749023 0.11474609 C21.20732359 0.20512632 21.20732359 0.20512632 23.48803711 2.48583984 C22.3162793 2.46263672 21.14452148 2.43943359 19.93725586 2.41552734 C11.23339695 2.29693101 3.00063783 2.385815 -5.51196289 4.48583984 C-3.90193784 1.74509722 -3.19346593 0.61764964 0 0 Z " fill="#F1A65F" transform="translate(462.511962890625,220.51416015625)"/>
<path d="M0 0 C0.33 1.32 0.66 2.64 1 4 C0.34 4 -0.32 4 -1 4 C-0.814375 4.9075 -0.62875 5.815 -0.4375 6.75 C-0.04265379 9.68314324 -0.05308428 11.2644657 -1 14 C0.32 14 1.64 14 3 14 C2.34 15.32 1.68 16.64 1 18 C-1.42666188 16.25583677 -2.83891029 14.90888512 -3.37109375 11.90625 C-3.50694082 7.11164759 -3.02657517 3.90932625 0 0 Z " fill="#FDF5DD" transform="translate(484,274)"/>
<path d="M0 0 C0.33 0.66 0.66 1.32 1 2 C-2.3 2 -5.6 2 -9 2 C-9.66 3.65 -10.32 5.3 -11 7 C-10.34 7 -9.68 7 -9 7 C-9 7.66 -9 8.32 -9 9 C-9.66 9 -10.32 9 -11 9 C-11.66 9.99 -12.32 10.98 -13 12 C-13.47792208 4.83116883 -13.47792208 4.83116883 -11.5625 1.5 C-7.78106272 -0.71352426 -4.2792407 -0.32917236 0 0 Z " fill="#FEF6DF" transform="translate(397,177)"/>
<path d="M0 0 C0.66 0.33 1.32 0.66 2 1 C1.38511719 1.59167969 0.77023438 2.18335938 0.13671875 2.79296875 C-0.67152344 3.58316406 -1.47976562 4.37335938 -2.3125 5.1875 C-3.11300781 5.96480469 -3.91351563 6.74210938 -4.73828125 7.54296875 C-6.91523174 9.90791151 -8.39243191 12.23348747 -10 15 C-12.1875 16.8125 -12.1875 16.8125 -14 18 C-14.66 17.67 -15.32 17.34 -16 17 C-14.625 15 -14.625 15 -13 13 C-12.34 13 -11.68 13 -11 13 C-10.76539063 12.43796875 -10.53078125 11.8759375 -10.2890625 11.296875 C-8.69337 8.45364109 -6.71075457 6.51901873 -4.375 4.25 C-3.55773437 3.45078125 -2.74046875 2.6515625 -1.8984375 1.828125 C-0.95871094 0.92320313 -0.95871094 0.92320313 0 0 Z " fill="#D4873D" transform="translate(239,127)"/>
<path d="M0 0 C3.89380168 3.48392782 5.54780791 6.0210557 7 11 C7.556875 11.886875 8.11375 12.77375 8.6875 13.6875 C9.120625 14.450625 9.55375 15.21375 10 16 C9.67 16.99 9.34 17.98 9 19 C0 4.26213592 0 4.26213592 0 0 Z " fill="#F19F54" transform="translate(323,241)"/>
<path d="M0 0 C0.66 0 1.32 0 2 0 C1.89300781 0.80824219 1.78601563 1.61648437 1.67578125 2.44921875 C1.49595703 4.05216797 1.49595703 4.05216797 1.3125 5.6875 C1.18488281 6.74324219 1.05726563 7.79898438 0.92578125 8.88671875 C1.01250556 12.52457518 1.74646054 14.17283231 4 17 C7.0957107 17.89207179 7.0957107 17.89207179 10 18 C10 18.33 10 18.66 10 19 C3.375 19.25 3.375 19.25 0 17 C-3.13584469 10.89335507 -1.996676 6.36440474 0 0 Z " fill="#F1A053" transform="translate(395,214)"/>
<path d="M0 0 C1.11375 0.185625 1.11375 0.185625 2.25 0.375 C1.46625 1.138125 0.6825 1.90125 -0.125 2.6875 C-3.81599869 6.38651017 -3.81599869 6.38651017 -4.9453125 11.29296875 C-4.92210937 12.37191406 -4.89890625 13.45085937 -4.875 14.5625 C-4.85695313 15.64917969 -4.83890625 16.73585938 -4.8203125 17.85546875 C-4.79710937 18.68691406 -4.77390625 19.51835937 -4.75 20.375 C-5.41 20.045 -6.07 19.715 -6.75 19.375 C-7.43758416 6.50189661 -7.43758416 6.50189661 -5.0625 2.5625 C-2.75 0.375 -2.75 0.375 0 0 Z " fill="#F09C4E" transform="translate(285.75,316.625)"/>
<path d="M0 0 C0.33 0 0.66 0 1 0 C1.22262303 6.7281627 0.95021536 12.53991163 -1 19 C-1.66 19 -2.32 19 -3 19 C-3 20.32 -3 21.64 -3 23 C-3.66 23 -4.32 23 -5 23 C-3.30274549 14.71234232 -3.30274549 14.71234232 -1.9375 11.5 C-0.53829172 7.76877792 -0.32717973 3.9519867 0 0 Z " fill="#F0A25C" transform="translate(520,325)"/>
<path d="M0 0 C0.609375 1.85546875 0.609375 1.85546875 1 4 C-0.2879728 5.70196405 -1.62986661 7.36345179 -3 9 C-4.14709386 11.29418772 -5.06193095 13.60792391 -6 16 C-7.65 15.67 -9.3 15.34 -11 15 C-10.62488281 14.5875 -10.24976563 14.175 -9.86328125 13.75 C-6.04203965 9.43786842 -2.91486912 4.96559562 0 0 Z " fill="#F29E4E" transform="translate(381,224)"/>
<path d="M0 0 C4.62 0 9.24 0 14 0 C14 0.66 14 1.32 14 2 C15.32 2.33 16.64 2.66 18 3 C14.98968256 3.93423645 14.13349732 4.04449911 11 3 C9.10787263 2.77820215 7.21115528 2.59385985 5.3125 2.4375 C4.31863281 2.35371094 3.32476562 2.26992187 2.30078125 2.18359375 C1.16189453 2.09271484 1.16189453 2.09271484 0 2 C0 1.34 0 0.68 0 0 Z " fill="#F2A860" transform="translate(350,185)"/>
<path d="M0 0 C0.66 0.495 1.32 0.99 2 1.5 C5.80894818 3.40447409 8.81220831 3.66123027 13 3 C15.81780534 1.61114752 15.81780534 1.61114752 18 0 C18.66 0 19.32 0 20 0 C19.34 1.65 18.68 3.3 18 5 C15.56183415 5.0809723 13.12635616 5.14046972 10.6875 5.1875 C9.65206055 5.22520508 9.65206055 5.22520508 8.59570312 5.26367188 C3.4824036 5.33777767 3.4824036 5.33777767 1.01953125 3.61328125 C0 2 0 2 0 0 Z " fill="#EB9F59" transform="translate(444,252)"/>
<path d="M0 0 C0.66 0.33 1.32 0.66 2 1 C1.07038578 2.15224028 0.1309875 3.29659176 -0.8125 4.4375 C-1.59560547 5.39462891 -1.59560547 5.39462891 -2.39453125 6.37109375 C-4 8 -4 8 -7 9 C-7.99 10.485 -7.99 10.485 -9 12 C-9.99 11.67 -10.98 11.34 -12 11 C-10.75323147 9.72599623 -9.5024352 8.45593346 -8.25 7.1875 C-7.55390625 6.47980469 -6.8578125 5.77210938 -6.140625 5.04296875 C-4.18571355 3.17724121 -2.19661447 1.56830358 0 0 Z " fill="#F2A053" transform="translate(420,220)"/>
<path d="M0 0 C2.97 0 5.94 0 9 0 C9 0.66 9 1.32 9 2 C14.94 2 20.88 2 27 2 C27 2.33 27 2.66 27 3 C23.81257885 3.05865035 20.62529882 3.09381259 17.4375 3.125 C16.09461914 3.15013672 16.09461914 3.15013672 14.72460938 3.17578125 C9.39910095 3.21479596 5.03629311 2.75475782 0 1 C0 0.67 0 0.34 0 0 Z " fill="#FEF4DB" transform="translate(333,297)"/>
<path d="M0 0 C1.65 0 3.3 0 5 0 C0.375 4.875 0.375 4.875 -3 6 C-4.21869929 8.50447516 -4.21869929 8.50447516 -5 11 C-5.33 11 -5.66 11 -6 11 C-6 9.02 -6 7.04 -6 5 C-5.38125 4.9175 -4.7625 4.835 -4.125 4.75 C-1.81562433 4.18741541 -1.81562433 4.18741541 -0.75 1.9375 C-0.5025 1.298125 -0.255 0.65875 0 0 Z " fill="#F29F52" transform="translate(409,193)"/>
<path d="M0 0 C0.66 0.33 1.32 0.66 2 1 C1.01 2.485 1.01 2.485 0 4 C-0.02317638 7.43988753 -0.02317638 7.43988753 0.375 11.1875 C0.48585938 12.45980469 0.59671875 13.73210937 0.7109375 15.04296875 C0.80632812 16.01878906 0.90171875 16.99460937 1 18 C-1.38432398 15.61567602 -2.09773429 14.26203756 -3 11 C-2.90192644 2.90192644 -2.90192644 2.90192644 0 0 Z " fill="#FEECCD" transform="translate(439,269)"/>
<path d="M0 0 C0 3.19131 -0.13209062 4.45285085 -2 7 C-6.85561768 8.42115639 -11.97752445 8.10044951 -17 8 C-17 7.67 -17 7.34 -17 7 C-16.35933594 6.91363281 -15.71867187 6.82726562 -15.05859375 6.73828125 C-8.73985835 5.71183988 -4.93570995 4.07732561 0 0 Z " fill="#FEF4DA" transform="translate(458,261)"/>
<path d="M0 0 C0.66 0.33 1.32 0.66 2 1 C-4.14285714 6.57142857 -4.14285714 6.57142857 -9 7 C-9 7.66 -9 8.32 -9 9 C-10.65 9.33 -12.3 9.66 -14 10 C-10.04055212 5.52965562 -5.55413553 2.2914901 0 0 Z " fill="#DD8938" transform="translate(255,117)"/>
<path d="M0 0 C2.81392599 5.53634219 3.30017357 9.79641293 3 16 C2.34 16.66 1.68 17.32 1 18 C0.10395632 11.95170514 -0.11269443 6.1105424 0 0 Z " fill="#FDE9C8" transform="translate(423,268)"/>
<path d="M0 0 C2.31 0 4.62 0 7 0 C7 0.66 7 1.32 7 2 C7.99 2 8.98 2 10 2 C10 2.66 10 3.32 10 4 C11.65 3.67 13.3 3.34 15 3 C15 4.98 15 6.96 15 9 C14.25234375 8.51789063 13.5046875 8.03578125 12.734375 7.5390625 C11.74953125 6.90742188 10.7646875 6.27578125 9.75 5.625 C8.77546875 4.99851563 7.8009375 4.37203125 6.796875 3.7265625 C4.56478385 2.34865148 2.36912578 1.11687358 0 0 Z " fill="#F1A252" transform="translate(401,249)"/>
<path d="M0 0 C1 2 1 2 0.00390625 5.0390625 C-0.47175781 6.22242188 -0.94742188 7.40578125 -1.4375 8.625 C-1.91058594 9.81351562 -2.38367188 11.00203125 -2.87109375 12.2265625 C-3.24363281 13.14179688 -3.61617187 14.05703125 -4 15 C-5.09969293 11.70092122 -4.90192008 10.29093739 -4.25 6.9375 C-4.09015625 6.05964844 -3.9303125 5.18179687 -3.765625 4.27734375 C-3 2 -3 2 0 0 Z " fill="#E09247" transform="translate(589,426)"/>
<path d="M0 0 C2.52490791 1.08210339 4.03546037 2.03774814 5.9375 4.0625 C8.30839468 6.28970409 9.81664932 6.64629437 13 7 C12.34 8.32 11.68 9.64 11 11 C6.86378916 7.6189962 3.18683431 4.33409466 0 0 Z " fill="#F4A154" transform="translate(498,229)"/>
<path d="M0 0 C0.66 0.66 1.32 1.32 2 2 C-1.63 1.67 -5.26 1.34 -9 1 C-9 1.66 -9 2.32 -9 3 C-10.62626404 4.38232443 -12.2925002 5.71937515 -14 7 C-14.33 6.34 -14.66 5.68 -15 5 C-10.8503573 -0.53285694 -6.76780808 -1.13795003 0 0 Z " fill="#FEEED3" transform="translate(293,278)"/>
<path d="M0 0 C7.48291572 6.15034169 7.48291572 6.15034169 10 10 C8.35 9.67 6.7 9.34 5 9 C5 8.01 5 7.02 5 6 C3.68 5.67 2.36 5.34 1 5 C0.67 3.35 0.34 1.7 0 0 Z " fill="#FEF3D4" transform="translate(336,266)"/>
<path d="M0 0 C7.09629025 -0.31461385 12.68284595 -0.44572039 19 3 C19 3.33 19 3.66 19 4 C14.47811994 4.25121556 14.47811994 4.25121556 12.15625 3.03125 C9.62091122 1.81869667 7.5430783 1.59550618 4.75 1.375 C3.85796875 1.30023438 2.9659375 1.22546875 2.046875 1.1484375 C1.03367187 1.07496094 1.03367187 1.07496094 0 1 C0 0.67 0 0.34 0 0 Z " fill="#FEE7C1" transform="translate(389,249)"/>
<path d="M0 0 C0.66 0 1.32 0 2 0 C1.67 0.99 1.34 1.98 1 3 C0.77820215 4.89212737 0.59385985 6.78884472 0.4375 8.6875 C0.31181641 10.17830078 0.31181641 10.17830078 0.18359375 11.69921875 C0.12300781 12.45847656 0.06242187 13.21773437 0 14 C-0.66 14 -1.32 14 -2 14 C-2.05437607 12.41705218 -2.09296271 10.83355744 -2.125 9.25 C-2.14820313 8.36828125 -2.17140625 7.4865625 -2.1953125 6.578125 C-1.99139502 3.8864142 -1.36551721 2.30095026 0 0 Z " fill="#EFA358" transform="translate(441,234)"/>
<path d="M0 0 C3.96 0 7.92 0 12 0 C11.67 0.99 11.34 1.98 11 3 C7.7 3 4.4 3 1 3 C0.67 2.01 0.34 1.02 0 0 Z " fill="#EE9F51" transform="translate(333,192)"/>
<path d="M0 0 C2.67372285 0.08687186 5.32375655 0.04614213 8 0 C8 0.33 8 0.66 8 1 C2.03325384 2.32594359 -3.92583615 2.0884587 -10 2 C-10 1.34 -10 0.68 -10 0 C-6.3742928 -1.25505249 -3.7308454 -0.64572324 0 0 Z " fill="#FEF5E1" transform="translate(418,421)"/>
<path d="M0 0 C5.75 1.625 5.75 1.625 8 5 C10.55183404 6.20450304 10.55183404 6.20450304 13 7 C13 7.66 13 8.32 13 9 C7.50151887 7.65890704 3.907435 4.96523729 0 1 C0 0.67 0 0.34 0 0 Z " fill="#FEF0D5" transform="translate(332,233)"/>
<path d="M0 0 C1.485 0.99 1.485 0.99 3 2 C3.39259107 6.23998354 3.32490278 9.36733941 1 13 C0.34 13 -0.32 13 -1 13 C-0.83628906 12.43796875 -0.67257812 11.8759375 -0.50390625 11.296875 C0.02864997 8.86940944 0.09898681 6.73110319 0.0625 4.25 C0.05347656 3.45078125 0.04445313 2.6515625 0.03515625 1.828125 C0.02355469 1.22484375 0.01195312 0.6215625 0 0 Z " fill="#FEF5DA" transform="translate(398,179)"/>
<path d="M0 0 C-4.95 2.31 -9.9 4.62 -15 7 C-13.76768195 3.30304586 -12.11637376 2.63765041 -8.77734375 0.85546875 C-5.26573259 -0.8347353 -3.7543345 -1.25144483 0 0 Z " fill="#FFF1D7" transform="translate(436,213)"/>
<path d="M0 0 C0.61875 0.495 1.2375 0.99 1.875 1.5 C6.26029741 3.60494276 10.21713261 3.25075227 15 3 C15 3.66 15 4.32 15 5 C10.38 5.33 5.76 5.66 1 6 C0.67 4.02 0.34 2.04 0 0 Z " fill="#F3A357" transform="translate(279,296)"/>
<path d="M0 0 C2.475 0.99 2.475 0.99 5 2 C5.125 8.625 5.125 8.625 4 12 C3.34 12 2.68 12 2 12 C2.03480469 11.07767578 2.03480469 11.07767578 2.0703125 10.13671875 C2.08835937 9.32847656 2.10640625 8.52023438 2.125 7.6875 C2.15980469 6.48673828 2.15980469 6.48673828 2.1953125 5.26171875 C2.15817322 2.71611424 2.15817322 2.71611424 0 0 Z " fill="#F3A35D" transform="translate(398,178)"/>
<path d="M0 0 C0.33 1.32 0.66 2.64 1 4 C0.34 4 -0.32 4 -1 4 C-1.0825 4.78375 -1.165 5.5675 -1.25 6.375 C-2 9 -2 9 -4.0625 10.3125 C-5.0215625 10.6528125 -5.0215625 10.6528125 -6 11 C-4.54955729 6.89041233 -2.48889248 3.56741255 0 0 Z " fill="#F0A154" transform="translate(506,364)"/>
<path d="M0 0 C0.33 0 0.66 0 1 0 C1.2475 1.2375 1.495 2.475 1.75 3.75 C2.67839533 7.55776636 4.00468856 9.40406342 7 12 C7 12.66 7 13.32 7 14 C4.11043313 12.70467692 1.98958312 11.4869789 0 9 C-0.29296875 6.73828125 -0.29296875 6.73828125 -0.1875 4.3125 C-0.16042969 3.50425781 -0.13335937 2.69601562 -0.10546875 1.86328125 C-0.07066406 1.24839844 -0.03585937 0.63351562 0 0 Z " fill="#FEEFC9" transform="translate(277,285)"/>
<path d="M0 0 C0 0.33 0 0.66 0 1 C-1.5778125 1.1546875 -1.5778125 1.1546875 -3.1875 1.3125 C-6.90212333 1.98235011 -8.867691 3.03112006 -12 5 C-12.66 4.67 -13.32 4.34 -14 4 C-10.36515075 -1.28705346 -5.79646176 -0.3982302 0 0 Z " fill="#FEF5D5" transform="translate(344,195)"/>
<path d="M0 0 C0 3.21518097 -0.1621112 4.41024759 -2 7 C-5.125 8.25 -5.125 8.25 -8 9 C-7.04270084 7.87411986 -6.08412105 6.7493285 -5.125 5.625 C-4.59132813 4.99851562 -4.05765625 4.37203125 -3.5078125 3.7265625 C-2.38567993 2.44163349 -1.20628025 1.20628025 0 0 Z " fill="#EEA155" transform="translate(492,383)"/>
<path d="M0 0 C4 5 4 5 8 10 C7.67 10.66 7.34 11.32 7 12 C6.01 11.67 5.02 11.34 4 11 C2.8125 7.4375 2.8125 7.4375 2 4 C1.34 4 0.68 4 0 4 C0 2.68 0 1.36 0 0 Z " fill="#FEEFD4" transform="translate(328,254)"/>
<path d="M0 0 C5.94 3.465 5.94 3.465 12 7 C11.01 7.33 10.02 7.66 9 8 C7.30712215 7.04504326 5.64142963 6.0409066 4 5 C1.80869466 4.30420546 1.80869466 4.30420546 0 4 C0 2.68 0 1.36 0 0 Z " fill="#ED9F51" transform="translate(333,235)"/>
<path d="M0 0 C4.29 0 8.58 0 13 0 C13 0.33 13 0.66 13 1 C12.39671875 1.04898438 11.7934375 1.09796875 11.171875 1.1484375 C9.97304688 1.26058594 9.97304688 1.26058594 8.75 1.375 C7.56664062 1.47941406 7.56664062 1.47941406 6.359375 1.5859375 C3.914123 2.01507113 2.15163097 2.78600638 0 4 C0 2.68 0 1.36 0 0 Z " fill="#ED9F4A" transform="translate(299,224)"/>
<path d="M0 0 C2.475 0.495 2.475 0.495 5 1 C5.33 2.32 5.66 3.64 6 5 C6.99 5 7.98 5 9 5 C8.67 5.99 8.34 6.98 8 8 C6.66372225 6.85760183 5.33104612 5.71098945 4 4.5625 C3.2575 3.92441406 2.515 3.28632813 1.75 2.62890625 C1.1725 2.09136719 0.595 1.55382812 0 1 C0 0.67 0 0.34 0 0 Z " fill="#FFF1D6" transform="translate(315,390)"/>
<path d="M0 0 C2.475 0.495 2.475 0.495 5 1 C4.67 2.32 4.34 3.64 4 5 C4.66 5 5.32 5 6 5 C6 6.98 6 8.96 6 11 C5.7525 10.484375 5.505 9.96875 5.25 9.4375 C3.60418384 6.22815849 1.8023904 3.12414336 0 0 Z " fill="#F0A04D" transform="translate(419,261)"/>
<path d="M0 0 C0.33 0.66 0.66 1.32 1 2 C-0.3125 3.5 -0.3125 3.5 -2 5 C-2.99 5 -3.98 5 -5 5 C-5 5.66 -5 6.32 -5 7 C-6.32 6.67 -7.64 6.34 -9 6 C-6.03 4.02 -3.06 2.04 0 0 Z " fill="#F29E50" transform="translate(476,398)"/>
<path d="M0 0 C0.33 0 0.66 0 1 0 C1.3125 2.25 1.3125 2.25 1 5 C-1.5 7.3125 -1.5 7.3125 -4 9 C-2.25 2.25 -2.25 2.25 0 0 Z " fill="#F4993F" transform="translate(475,279)"/>
<path d="M0 0 C1.98 0 3.96 0 6 0 C6 2.31 6 4.62 6 7 C1.125 2.25 1.125 2.25 0 0 Z " fill="#F39A51" transform="translate(514,318)"/>
<path d="M0 0 C-0.375 1.9375 -0.375 1.9375 -1 4 C-1.99 4.495 -1.99 4.495 -3 5 C-3.66 4.67 -4.32 4.34 -5 4 C-5.33 4.66 -5.66 5.32 -6 6 C-6.66 5.34 -7.32 4.68 -8 4 C-2.25 0 -2.25 0 0 0 Z " fill="#F59C47" transform="translate(506,291)"/>
<path d="M0 0 C0.99 0.33 1.98 0.66 3 1 C1.68 2.65 0.36 4.3 -1 6 C-1.33 5.34 -1.66 4.68 -2 4 C-3.32 4.33 -4.64 4.66 -6 5 C-2.25 1.125 -2.25 1.125 0 0 Z " fill="#EAA566" transform="translate(482,273)"/>
<path d="M0 0 C0.66 0.33 1.32 0.66 2 1 C0.35 2.65 -1.3 4.3 -3 6 C-3.99 5.67 -4.98 5.34 -6 5 C-6 4.34 -6 3.68 -6 3 C-5.34 3 -4.68 3 -4 3 C-3.67 2.34 -3.34 1.68 -3 1 C-2.01 0.67 -1.02 0.34 0 0 Z " fill="#F1A258" transform="translate(459,258)"/>
<path d="M0 0 C0.66 0.33 1.32 0.66 2 1 C0.68 3.31 -0.64 5.62 -2 8 C-2.66 7.67 -3.32 7.34 -4 7 C-2.92598892 4.08482708 -2.22189824 2.22189824 0 0 Z " fill="#FEE7CB" transform="translate(348,188)"/>
<path d="M0 0 C2.97 0.99 5.94 1.98 9 3 C9 3.99 9 4.98 9 6 C6.03 4.35 3.06 2.7 0 1 C0 0.67 0 0.34 0 0 Z " fill="#FEF3DA" transform="translate(330,402)"/>
<path d="M0 0 C0.66 0.33 1.32 0.66 2 1 C-0.46153846 4.81538462 -0.46153846 4.81538462 -3.1875 5.75 C-3.785625 5.8325 -4.38375 5.915 -5 6 C-5 5.01 -5 4.02 -5 3 C-2.625 1.25 -2.625 1.25 0 0 Z " fill="#FCD4A3" transform="translate(554,477)"/>
<path d="M0 0 C0.66 0.33 1.32 0.66 2 1 C-0.475 4.465 -0.475 4.465 -3 8 C-3.66 7.67 -4.32 7.34 -5 7 C-5 6.34 -5 5.68 -5 5 C-4.01 5 -3.02 5 -2 5 C-2 4.01 -2 3.02 -2 2 C-1.34 2 -0.68 2 0 2 C0 1.34 0 0.68 0 0 Z " fill="#FEECD0" transform="translate(501,369)"/>
<path d="M0 0 C1.32 0.33 2.64 0.66 4 1 C4 2.65 4 4.3 4 6 C3.01 6.33 2.02 6.66 1 7 C1.020625 6.21625 1.04125 5.4325 1.0625 4.625 C1.18684063 2.01885039 1.18684063 2.01885039 0 0 Z " fill="#FFF4D4" transform="translate(367,290)"/>
<path d="M0 0 C3.465 1.98 3.465 1.98 7 4 C4 6 4 6 2 6 C1.34 4.02 0.68 2.04 0 0 Z " fill="#FDF5E0" transform="translate(354,282)"/>
<path d="M0 0 C3.68266103 0.59950296 7.34543185 1.24758891 11 2 C11 2.33 11 2.66 11 3 C3.49230769 3.36923077 3.49230769 3.36923077 1 1.5 C0.67 1.005 0.34 0.51 0 0 Z " fill="#FDE6C9" transform="translate(446,253)"/>
<path d="M0 0 C1.98 0.99 1.98 0.99 4 2 C4 4.64 4 7.28 4 10 C2.26337666 6.77484237 1.1094072 3.48670834 0 0 Z " fill="#EF9E4E" transform="translate(319,231)"/>
<path d="M0 0 C0 0.99 0 1.98 0 3 C-2.5 5.1875 -2.5 5.1875 -5 7 C-5.66 6.67 -6.32 6.34 -7 6 C-4.9859524 2.9789286 -3.36720387 1.39332574 0 0 Z " fill="#E69549" transform="translate(230,138)"/>
</svg>
